<?xml version="1.0" encoding="UTF-8" standalone="no"?>
<!DOCTYPE svg PUBLIC "-//W3C//DTD SVG 1.1//EN" "http://www.w3.org/Graphics/SVG/1.1/DTD/svg11.dtd">
<svg xmlns="http://www.w3.org/2000/svg" version="1.1" viewBox="0.00 0.00 182.00 166.00">
<path fill="#eb1412" d="
  M 142.55 45.31
  C 162.34 51.42 164.96 76.34 148.01 87.56
  Q 144.67 89.77 139.99 89.91
  Q 129.02 90.23 117.66 90.12
  Q 115.36 90.10 115.47 87.81
  L 115.48 87.48
  A 1.83 1.82 1.2 0 1 117.30 85.74
  Q 127.89 85.68 137.76 85.67
  C 144.85 85.66 149.32 82.13 152.65 76.10
  C 159.03 64.56 151.50 51.37 139.03 49.04
  A 2.16 2.16 0.0 0 1 137.37 46.26
  C 142.36 30.74 125.00 17.68 111.26 25.51
  A 2.08 2.07 -31.0 0 1 108.48 24.82
  Q 101.73 14.05 89.49 10.56
  C 67.43 4.28 45.92 23.86 49.73 46.35
  A 2.11 2.11 0.0 0 1 47.71 48.82
  Q 32.54 49.24 28.65 61.83
  C 25.58 71.75 32.09 85.19 43.50 85.45
  Q 54.32 85.69 65.31 85.74
  A 1.71 1.71 0.0 0 1 67.01 87.46
  L 67.01 87.97
  Q 66.99 90.11 64.86 90.12
  Q 53.80 90.20 43.25 90.16
  C 33.49 90.13 25.31 80.11 23.59 71.26
  C 21.39 59.97 28.45 48.86 39.55 45.67
  Q 41.92 44.99 44.33 44.48
  Q 44.82 44.37 44.80 43.88
  Q 44.41 32.51 49.66 23.37
  C 62.85 0.41 95.07 -1.25 110.61 20.21
  Q 110.91 20.62 111.39 20.45
  Q 127.42 14.82 137.67 27.08
  Q 143.71 34.30 142.12 44.64
  Q 142.04 45.16 142.55 45.31
  Z"
/>
<path fill="#eb1412" d="
  M 119.62 60.39
  C 104.13 42.98 78.65 43.44 62.95 60.39
  Q 61.46 62.00 59.87 60.49
  L 59.51 60.15
  A 1.69 1.68 42.2 0 1 59.39 57.83
  C 76.26 38.14 106.40 38.23 123.14 57.77
  A 1.73 1.73 0.0 0 1 123.05 60.11
  L 122.70 60.47
  Q 121.12 62.07 119.62 60.39
  Z"
/>
<path fill="#eb1412" d="
  M 111.63 68.38
  C 100.23 55.01 82.32 56.01 70.64 68.55
  Q 69.50 69.78 68.21 68.69
  L 67.73 68.29
  A 1.82 1.82 0.0 0 1 67.48 65.76
  C 79.38 50.82 103.40 50.25 115.12 65.80
  A 1.82 1.81 48.4 0 1 114.98 68.14
  L 114.68 68.46
  Q 113.11 70.11 111.63 68.38
  Z"
/>
<path fill="#eb1412" d="
  M 104.34 76.25
  C 96.95 66.81 85.60 67.36 78.10 76.28
  A 1.51 1.50 -49.2 0 1 75.94 76.44
  L 75.52 76.06
  A 2.33 2.32 41.8 0 1 75.33 72.78
  C 84.35 62.55 99.09 62.07 107.34 72.99
  Q 108.54 74.58 107.13 75.99
  L 106.71 76.40
  A 1.58 1.58 0.0 0 1 104.34 76.25
  Z"
/>
<path fill="#eb1412" d="
  M 99.80 85.00
  A 8.49 8.49 0.0 0 1 91.31 93.49
  A 8.49 8.49 0.0 0 1 82.82 85.00
  A 8.49 8.49 0.0 0 1 91.31 76.51
  A 8.49 8.49 0.0 0 1 99.80 85.00
  Z
  M 95.36 85.01
  A 4.03 4.03 0.0 0 0 91.33 80.98
  A 4.03 4.03 0.0 0 0 87.30 85.01
  A 4.03 4.03 0.0 0 0 91.33 89.04
  A 4.03 4.03 0.0 0 0 95.36 85.01
  Z"
/>
<path fill="#eb1412" d="
  M 95.24 161.02
  C 58.36 163.18 26.20 136.99 22.53 99.60
  A 0.47 0.47 0.0 0 1 23.00 99.08
  L 58.24 99.10
  Q 58.67 99.10 58.78 99.52
  C 62.69 115.48 75.28 126.11 91.63 125.94
  C 106.75 125.79 120.12 115.02 123.28 99.89
  Q 123.45 99.10 124.25 99.10
  L 159.23 99.11
  A 0.42 0.41 -86.9 0 1 159.64 99.57
  C 156.13 133.57 129.29 159.03 95.24 161.02
  Z"
/>
</svg>
